# xmcd
#
# Track frame offsets:
#	150
#	15612
#	29005
#	45109
#	58675
#	72014
#	86843
#	104867
#	120216
#	137783
#	151113
#	165138
#	179417
#
# Disc length: 2610 seconds
#
# Revision: 1
# Processed by: cddbd v1.5.2PL0 Copyright (c) Steve Scherf et al.
# Submitted via: audiograbber 1.83.01
#
DISCID=9f0a300d
DTITLE=Gil and Fabrício - Gil and Fabrício
DYEAR=2009
DGENRE=Sertaneja Universitário
TTITLE0=O amor não é assim
TTITLE1=Me liga amor
TTITLE2=Incontrolável
TTITLE3=Créu e tchau
TTITLE4=To dodói
TTITLE5=Joga fora
TTITLE6=Loucura de amor
TTITLE7=Eu não quero namorar
TTITLE8=Dois amores em mim
TTITLE9=Tatuada
TTITLE10=Barroso
TTITLE11=Quem ama faz loucura
TTITLE12=Vende quatro pra mim
EXTD=
EXTT0=
EXTT1=
EXTT2=
EXTT3=
EXTT4=
EXTT5=
EXTT6=
EXTT7=
EXTT8=
EXTT9=
EXTT10=
EXTT11=
EXTT12=
PLAYORDER=
